<svg xmlns="http://www.w3.org/2000/svg" viewBox="0 0 24 24" fill="white">
  <path d="M23.748 10.01a13.69 13.69 0 0 0-.9-2.23 12.69 12.69 0 0 0-3.128-3.955c-.368-.302-.76-.573-1.17-.81-.112-.065-.225-.126-.341-.184a8.85 8.85 0 0 0-1.006-.42A9.87 9.87 0 0 0 15.36 2c-.18-.021-.36-.036-.54-.046A11.68 11.68 0 0 0 12 2.1a11.39 11.39 0 0 0-5.03 1.517 11.46 11.46 0 0 0-3.796 3.804A11.36 11.36 0 0 0 1.66 12.5c0 2.955 1.124 5.735 3.163 7.826a11.08 11.08 0 0 0 7.665 3.37c2.917 0 5.66-1.124 7.726-3.163a10.94 10.94 0 0 0 3.37-7.726 10.89 10.89 0 0 0-.836-4.797zM12 21.6a9.6 9.6 0 1 1 0-19.2 9.6 9.6 0 0 1 0 19.2zm4.63-12.66a4.31 4.31 0 0 0-3.07-1.27 4.3 4.3 0 0 0-3.07 1.27 4.31 4.31 0 0 0-1.27 3.06 4.3 4.3 0 0 0 1.27 3.07 4.3 4.3 0 0 0 3.07 1.27 4.31 4.31 0 0 0 3.07-1.27 4.31 4.31 0 0 0 1.27-3.07 4.31 4.31 0 0 0-1.27-3.06z"/>
</svg>
