<svg xmlns="http://www.w3.org/2000/svg" viewBox="0 0 24 24" fill="white">
  <path d="M6.915 4.03c-1.968 0-3.683 1.28-4.871 3.113C.704 9.208 0 11.883 0 14.449c0 .706.07 1.369.21 1.973a6.624 6.624 0 0 0 .265.86 5.297 5.297 0 0 0 .371.761c.696 1.159 1.818 1.927 3.593 1.927 1.497 0 2.633-.671 3.965-2.444.76-1.012 1.144-1.626 2.663-4.32l.756-1.339.186-.325c.061.1.121.196.183.3l2.152 3.595c.724 1.21 1.665 2.556 2.47 3.314 1.046.987 1.992 1.22 2.79 1.22 1.925 0 3.155-.956 3.94-2.314.428-.727.688-1.51.688-2.147 0-.16-.009-.321-.027-.479a5.918 5.918 0 0 0-.63-2.028 5.94 5.94 0 0 0-1.226-1.632c-1.19-1.105-2.57-1.674-3.95-1.674-1.232 0-2.42.46-3.546 1.394l-.527.443-.196.176-.094-.152L13.8 9.38c-.63-1.044-1.26-2.01-1.946-2.765C10.856 5.537 9.465 4.03 6.915 4.03zm0 2.154c1.38 0 2.447.834 3.514 2.225.647.84 1.362 2.038 2.226 3.585l.18.314-1.09 1.95c-1.223 2.19-1.606 2.77-2.278 3.674-1.011 1.351-1.614 1.726-2.552 1.726-.758 0-1.295-.25-1.79-1.027a4.67 4.67 0 0 1-.254-.612 5.082 5.082 0 0 1-.164-.79c-.095-.617-.142-1.296-.142-2.025 0-2.267.58-4.657 1.52-6.177.658-1.064 1.408-1.843 2.83-1.843zm10.279 3.75c1.002 0 2.114.506 3.02 1.35a3.68 3.68 0 0 1 .768 1.03 3.7 3.7 0 0 1 .394 1.315c.012.098.018.197.018.297 0 .458-.157.956-.436 1.481-.577 1.081-1.32 1.52-2.227 1.52-.633 0-1.195-.17-1.945-.732-.684-.519-1.446-1.469-2.173-2.698l-1.738-2.88.435-.38c.939-.817 1.862-1.303 2.884-1.303z"/>
</svg>
